# xmcd
#
# Track frame offsets:
#	150
#	15754
#	34060
#	50415
#	68271
#	84626
#	101431
#	119287
#	136543
#	152749
#	177805
#	193560
#
# Disc length: 2842 seconds
#
# Revision: 0
# Processed by: cddbd v1.5.2PL0 Copyright (c) Steve Scherf et al.
# Submitted via: audiograbber 1.82.01
#
DISCID=820b180c
DTITLE=Shedaisy - Sweet Right Here
DYEAR=2004
DGENRE=Country
TTITLE0=Passenger Seat  
TTITLE1=5432 Run
TTITLE2=360 Degrees Of You  
TTITLE3=Love Goes On  
TTITLE4=I Dare You  
TTITLE5=Good Together (Bucket and Chicken)
TTITLE6=Come Home Soon  
TTITLE7=Don't Worry 'Bout A Thing  
TTITLE8=Without A Sound  
TTITLE9=Borrowed Home  
TTITLE10=A Woman's Work
TTITLE11=He's A Hero
EXTD=
EXTT0=
EXTT1=
EXTT2=
EXTT3=
EXTT4=
EXTT5=
EXTT6=
EXTT7=
EXTT8=
EXTT9=
EXTT10=
EXTT11=
PLAYORDER=
